<svg width="218" height="89" viewBox="0 0 218 89" fill="none" xmlns="http://www.w3.org/2000/svg">
<path d="M14.147 34.033C15.507 34.033 16.578 33.71 17.36 33.064C18.176 32.418 18.669 31.687 18.839 30.871H26.387C26.149 32.605 25.656 34.067 24.908 35.257C24.16 36.447 23.225 37.433 22.103 38.215C21.015 38.997 19.774 39.558 18.38 39.898C16.986 40.238 15.541 40.408 14.045 40.408C11.801 40.408 9.846 40.102 8.18 39.49C6.548 38.844 5.188 37.926 4.1 36.736C3.012 35.512 2.179 34.05 1.601 32.35C1.057 30.616 0.785 28.678 0.785 26.536C0.785 24.462 1.091 22.558 1.703 20.824C2.315 19.09 3.182 17.611 4.304 16.387C5.46 15.163 6.871 14.228 8.537 13.582C10.203 12.902 12.107 12.562 14.249 12.562C15.813 12.562 17.275 12.749 18.635 13.123C20.029 13.497 21.253 14.075 22.307 14.857C23.395 15.639 24.279 16.642 24.959 17.866C25.673 19.056 26.149 20.484 26.387 22.15H18.839C18.669 21.334 18.159 20.603 17.309 19.957C16.493 19.311 15.422 18.988 14.096 18.988C12.974 18.988 12.005 19.192 11.189 19.6C10.373 20.008 9.727 20.569 9.251 21.283C8.775 21.997 8.435 22.813 8.231 23.731C8.027 24.649 7.925 25.618 7.925 26.638C7.925 27.726 8.044 28.729 8.282 29.647C8.52 30.531 8.877 31.313 9.353 31.993C9.829 32.639 10.458 33.149 11.24 33.523C12.056 33.863 13.025 34.033 14.147 34.033ZM35.2805 16.489C36.3685 15.197 37.5245 14.228 38.7485 13.582C40.0065 12.936 41.5025 12.613 43.2365 12.613C43.6785 12.613 44.1035 12.63 44.5115 12.664C44.9195 12.698 45.2935 12.749 45.6335 12.817V19.447C44.8515 19.447 44.0525 19.464 43.2365 19.498C42.4545 19.498 41.7065 19.566 40.9925 19.702C40.2785 19.838 39.5815 20.059 38.9015 20.365C38.2555 20.637 37.6775 21.045 37.1675 21.589C36.3855 22.473 35.8925 23.425 35.6885 24.445C35.5185 25.465 35.4335 26.621 35.4335 27.913V40H28.2425V13.123H34.8725L35.2805 16.489ZM58.4521 34.543C59.4721 34.543 60.3391 34.39 61.0531 34.084C61.8011 33.744 62.4131 33.2 62.8891 32.452H70.4371C70.0631 33.846 69.4851 35.053 68.7031 36.073C67.9551 37.093 67.0371 37.926 65.9491 38.572C64.8951 39.218 63.7221 39.694 62.4301 40C61.1381 40.272 59.7781 40.408 58.3501 40.408C53.9981 40.408 50.7001 39.184 48.4561 36.736C46.2461 34.288 45.1411 30.854 45.1411 26.434C45.1411 24.428 45.4301 22.575 46.0081 20.875C46.6201 19.175 47.4701 17.713 48.5581 16.489C49.6461 15.231 50.9891 14.262 52.5871 13.582C54.2191 12.902 56.0721 12.562 58.1461 12.562C60.5601 12.562 62.6511 12.987 64.4191 13.837C66.1871 14.687 67.5811 15.86 68.6011 17.356C69.6551 18.818 70.3521 20.535 70.6921 22.507C71.0661 24.479 71.0661 26.587 70.6921 28.831H52.3321C52.4681 30.429 53.0291 31.789 54.0151 32.911C55.0011 33.999 56.4801 34.543 58.4521 34.543ZM64.0111 23.884C64.0111 23.034 63.8581 22.286 63.5521 21.64C63.2461 20.96 62.8381 20.416 62.3281 20.008C61.8181 19.566 61.2061 19.243 60.4921 19.039C59.8121 18.835 59.0981 18.733 58.3501 18.733C56.5481 18.767 55.1371 19.26 54.1171 20.212C53.1311 21.13 52.5531 22.354 52.3831 23.884H64.0111ZM89.9776 36.685C88.9576 38.045 87.7166 39.014 86.2546 39.592C84.7926 40.17 83.0926 40.442 81.1546 40.408C78.6726 40.34 76.5986 39.643 74.9326 38.317C74.0486 37.569 73.3516 36.685 72.8416 35.665C72.3656 34.611 72.1276 33.37 72.1276 31.942C72.1616 30.48 72.4846 29.188 73.0966 28.066C73.7426 26.91 74.7116 25.958 76.0036 25.21C77.0916 24.632 78.3156 24.224 79.6756 23.986C81.0696 23.748 82.5826 23.629 84.2146 23.629H89.7226C89.8246 21.963 89.4336 20.722 88.5496 19.906C87.6996 19.056 86.4926 18.614 84.9286 18.58C84.4186 18.58 83.8916 18.614 83.3476 18.682C82.8036 18.75 82.2936 18.886 81.8176 19.09C81.3756 19.294 80.9846 19.583 80.6446 19.957C80.3386 20.297 80.1346 20.722 80.0326 21.232H72.6376C72.8076 19.6 73.2496 18.24 73.9636 17.152C74.7116 16.03 75.6466 15.129 76.7686 14.449C77.8906 13.769 79.1316 13.293 80.4916 13.021C81.8856 12.715 83.3136 12.562 84.7756 12.562C85.5916 12.562 86.4246 12.613 87.2746 12.715C88.1246 12.783 88.9576 12.953 89.7736 13.225C90.5896 13.463 91.3546 13.803 92.0686 14.245C92.8166 14.653 93.5136 15.197 94.1596 15.877C95.3156 17.203 96.0296 18.733 96.3016 20.467C96.6076 22.167 96.7436 23.833 96.7096 25.465V40H90.1306L89.9776 36.685ZM89.7226 28.117H84.4696C83.9596 28.117 83.3816 28.168 82.7356 28.27C82.0896 28.372 81.5286 28.559 81.0526 28.831C80.5766 29.103 80.1686 29.46 79.8286 29.902C79.5226 30.344 79.3696 30.888 79.3696 31.534C79.3696 32.078 79.4716 32.554 79.6756 32.962C79.9136 33.37 80.2026 33.71 80.5426 33.982C80.9166 34.254 81.3586 34.475 81.8686 34.645C82.3786 34.781 82.8886 34.849 83.3986 34.849C84.3846 34.883 85.3026 34.713 86.1526 34.339C87.0366 33.965 87.8016 33.438 88.4476 32.758C88.8556 32.214 89.1616 31.602 89.3656 30.922C89.6036 30.208 89.7226 29.273 89.7226 28.117ZM109.064 19.396V30.259C109.064 32.571 110.237 33.727 112.583 33.727H115.235V40H111.869C108.299 40.136 105.732 39.456 104.168 37.96C102.638 36.464 101.873 34.203 101.873 31.177V19.396H97.793V13.123H101.873V5.83H109.064V13.123H115.49V19.396H109.064ZM120.783 0.627999C122.109 0.627999 123.18 1.019 123.996 1.801C124.812 2.583 125.22 3.62 125.22 4.912C125.22 6.272 124.812 7.343 123.996 8.125C123.18 8.873 122.109 9.247 120.783 9.247C119.491 9.247 118.42 8.873 117.57 8.125C116.754 7.343 116.346 6.272 116.346 4.912C116.346 3.62 116.754 2.583 117.57 1.801C118.42 1.019 119.491 0.627999 120.783 0.627999ZM124.404 40H117.213V13.123H124.404V40ZM145.955 13.123H153.86L143.966 40H134.939L125.096 13.123H133.052L139.529 33.064L145.955 13.123ZM166.429 34.543C167.449 34.543 168.316 34.39 169.03 34.084C169.778 33.744 170.39 33.2 170.866 32.452H178.414C178.04 33.846 177.462 35.053 176.68 36.073C175.932 37.093 175.014 37.926 173.926 38.572C172.872 39.218 171.699 39.694 170.407 40C169.115 40.272 167.755 40.408 166.327 40.408C161.975 40.408 158.677 39.184 156.433 36.736C154.223 34.288 153.118 30.854 153.118 26.434C153.118 24.428 153.407 22.575 153.985 20.875C154.597 19.175 155.447 17.713 156.535 16.489C157.623 15.231 158.966 14.262 160.564 13.582C162.196 12.902 164.049 12.562 166.123 12.562C168.537 12.562 170.628 12.987 172.396 13.837C174.164 14.687 175.558 15.86 176.578 17.356C177.632 18.818 178.329 20.535 178.669 22.507C179.043 24.479 179.043 26.587 178.669 28.831H160.309C160.445 30.429 161.006 31.789 161.992 32.911C162.978 33.999 164.457 34.543 166.429 34.543ZM171.988 23.884C171.988 23.034 171.835 22.286 171.529 21.64C171.223 20.96 170.815 20.416 170.305 20.008C169.795 19.566 169.183 19.243 168.469 19.039C167.789 18.835 167.075 18.733 166.327 18.733C164.525 18.767 163.114 19.26 162.094 20.212C161.108 21.13 160.53 22.354 160.36 23.884H171.988ZM188.264 40H181.073V3.892H188.264V40ZM208.967 44.182C209.647 43.128 210.038 41.972 210.14 40.714C210.242 39.456 210.293 38.215 210.293 36.991C209.307 38.249 208.1 39.133 206.672 39.643C205.244 40.153 203.697 40.408 202.031 40.408C200.093 40.408 198.41 40.119 196.982 39.541C195.588 38.963 194.483 38.079 193.667 36.889C192.851 35.801 192.29 34.526 191.984 33.064C191.678 31.568 191.525 29.953 191.525 28.219V13.123H198.716V27.352C198.716 28.27 198.784 29.171 198.92 30.055C199.09 30.905 199.43 31.619 199.94 32.197C200.756 33.421 202.235 34.033 204.377 34.033C205.397 34.033 206.349 33.829 207.233 33.421C208.117 32.979 208.814 32.299 209.324 31.381C209.766 30.599 210.038 29.783 210.14 28.933C210.242 28.049 210.293 27.097 210.293 26.077V13.123H217.535V35.206C217.535 36.43 217.518 37.688 217.484 38.98C217.484 40.238 217.382 41.479 217.178 42.703C217.008 43.927 216.685 45.117 216.209 46.273C215.733 47.429 215.07 48.5 214.22 49.486C213.03 50.846 211.466 51.934 209.528 52.75C207.624 53.566 205.329 53.957 202.643 53.923C200.671 53.957 198.716 53.685 196.778 53.107C194.84 52.563 193.055 51.764 191.423 50.71L193.718 44.59C194.602 45.236 195.775 45.831 197.237 46.375C198.733 46.919 200.484 47.191 202.49 47.191C204.122 47.191 205.448 46.919 206.468 46.375C207.522 45.865 208.355 45.134 208.967 44.182ZM11.75 66.325C11.24 66.325 10.747 66.359 10.271 66.427C9.829 66.495 9.421 66.614 9.047 66.784C8.673 66.92 8.367 67.158 8.129 67.498C7.891 67.804 7.789 68.212 7.823 68.722C7.857 69.3 8.078 69.759 8.486 70.099C8.928 70.439 9.54 70.711 10.322 70.915C11.07 71.119 11.903 71.323 12.821 71.527C13.739 71.697 14.64 71.884 15.524 72.088C16.408 72.292 17.275 72.53 18.125 72.802C18.975 73.074 19.723 73.414 20.369 73.822C21.253 74.366 21.984 75.131 22.562 76.117C23.14 77.103 23.412 78.31 23.378 79.738C23.378 81.132 23.14 82.339 22.664 83.359C22.222 84.345 21.61 85.195 20.828 85.909C19.842 86.793 18.601 87.439 17.105 87.847C15.609 88.221 14.096 88.408 12.566 88.408C10.798 88.408 9.166 88.221 7.67 87.847C6.208 87.473 4.865 86.81 3.641 85.858C2.757 85.144 2.009 84.277 1.397 83.257C0.819 82.203 0.479 80.945 0.377 79.483H7.619C7.823 80.639 8.384 81.438 9.302 81.88C10.254 82.322 11.376 82.543 12.668 82.543C13.042 82.543 13.433 82.526 13.841 82.492C14.283 82.424 14.674 82.322 15.014 82.186C15.388 82.016 15.694 81.778 15.932 81.472C16.204 81.132 16.34 80.775 16.34 80.401C16.374 79.517 16.068 78.888 15.422 78.514C14.81 78.14 14.147 77.885 13.433 77.749C12.719 77.579 11.954 77.409 11.138 77.239C10.322 77.069 9.506 76.899 8.69 76.729C7.908 76.559 7.126 76.355 6.344 76.117C5.562 75.845 4.848 75.488 4.202 75.046C3.216 74.434 2.383 73.618 1.703 72.598C1.057 71.578 0.785 70.235 0.887 68.569C0.955 67.107 1.312 65.866 1.958 64.846C2.638 63.792 3.471 62.959 4.457 62.347C5.477 61.701 6.616 61.242 7.874 60.97C9.166 60.698 10.475 60.562 11.801 60.562C13.263 60.562 14.64 60.715 15.932 61.021C17.224 61.327 18.346 61.82 19.298 62.5C20.284 63.18 21.066 64.064 21.644 65.152C22.256 66.24 22.596 67.566 22.664 69.13H15.728C15.592 68.008 15.15 67.26 14.402 66.886C13.688 66.512 12.804 66.325 11.75 66.325ZM37.8939 82.033C39.2539 82.033 40.3249 81.71 41.1069 81.064C41.9229 80.418 42.4159 79.687 42.5859 78.871H50.1339C49.8959 80.605 49.4029 82.067 48.6549 83.257C47.9069 84.447 46.9719 85.433 45.8499 86.215C44.7619 86.997 43.5209 87.558 42.1269 87.898C40.7329 88.238 39.2879 88.408 37.7919 88.408C35.5479 88.408 33.5929 88.102 31.9269 87.49C30.2949 86.844 28.9349 85.926 27.8469 84.736C26.7589 83.512 25.9259 82.05 25.3479 80.35C24.8039 78.616 24.5319 76.678 24.5319 74.536C24.5319 72.462 24.8379 70.558 25.4499 68.824C26.0619 67.09 26.9289 65.611 28.0509 64.387C29.2069 63.163 30.6179 62.228 32.2839 61.582C33.9499 60.902 35.8539 60.562 37.9959 60.562C39.5599 60.562 41.0219 60.749 42.3819 61.123C43.7759 61.497 44.9999 62.075 46.0539 62.857C47.1419 63.639 48.0259 64.642 48.7059 65.866C49.4199 67.056 49.8959 68.484 50.1339 70.15H42.5859C42.4159 69.334 41.9059 68.603 41.0559 67.957C40.2399 67.311 39.1689 66.988 37.8429 66.988C36.7209 66.988 35.7519 67.192 34.9359 67.6C34.1199 68.008 33.4739 68.569 32.9979 69.283C32.5219 69.997 32.1819 70.813 31.9779 71.731C31.7739 72.649 31.6719 73.618 31.6719 74.638C31.6719 75.726 31.7909 76.729 32.0289 77.647C32.2669 78.531 32.6239 79.313 33.0999 79.993C33.5759 80.639 34.2049 81.149 34.9869 81.523C35.8029 81.863 36.7719 82.033 37.8939 82.033ZM55.9674 48.628C57.2934 48.628 58.3644 49.019 59.1804 49.801C59.9964 50.583 60.4044 51.62 60.4044 52.912C60.4044 54.272 59.9964 55.343 59.1804 56.125C58.3644 56.873 57.2934 57.247 55.9674 57.247C54.6754 57.247 53.6044 56.873 52.7544 56.125C51.9384 55.343 51.5304 54.272 51.5304 52.912C51.5304 51.62 51.9384 50.583 52.7544 49.801C53.6044 49.019 54.6754 48.628 55.9674 48.628ZM59.5884 88H52.3974V61.123H59.5884V88ZM75.3757 82.543C76.3957 82.543 77.2627 82.39 77.9767 82.084C78.7247 81.744 79.3367 81.2 79.8127 80.452H87.3607C86.9867 81.846 86.4087 83.053 85.6267 84.073C84.8787 85.093 83.9607 85.926 82.8727 86.572C81.8187 87.218 80.6457 87.694 79.3537 88C78.0617 88.272 76.7017 88.408 75.2737 88.408C70.9217 88.408 67.6237 87.184 65.3797 84.736C63.1697 82.288 62.0647 78.854 62.0647 74.434C62.0647 72.428 62.3537 70.575 62.9317 68.875C63.5437 67.175 64.3937 65.713 65.4817 64.489C66.5697 63.231 67.9127 62.262 69.5107 61.582C71.1427 60.902 72.9957 60.562 75.0697 60.562C77.4837 60.562 79.5747 60.987 81.3427 61.837C83.1107 62.687 84.5047 63.86 85.5247 65.356C86.5787 66.818 87.2757 68.535 87.6157 70.507C87.9897 72.479 87.9897 74.587 87.6157 76.831H69.2557C69.3917 78.429 69.9527 79.789 70.9387 80.911C71.9247 81.999 73.4037 82.543 75.3757 82.543ZM80.9347 71.884C80.9347 71.034 80.7817 70.286 80.4757 69.64C80.1697 68.96 79.7617 68.416 79.2517 68.008C78.7417 67.566 78.1297 67.243 77.4157 67.039C76.7357 66.835 76.0217 66.733 75.2737 66.733C73.4717 66.767 72.0607 67.26 71.0407 68.212C70.0547 69.13 69.4767 70.354 69.3067 71.884H80.9347ZM97.2623 64.54C99.4383 61.922 102.124 60.596 105.32 60.562C107.054 60.528 108.584 60.817 109.91 61.429C111.236 62.007 112.307 62.806 113.123 63.826C114.109 65.016 114.789 66.41 115.163 68.008C115.537 69.572 115.724 71.323 115.724 73.261V88H108.482V73.822C108.482 72.87 108.38 71.969 108.176 71.119C108.006 70.235 107.7 69.487 107.258 68.875C106.816 68.229 106.221 67.753 105.473 67.447C104.759 67.141 103.943 66.988 103.025 66.988C101.869 67.022 100.883 67.277 100.067 67.753C99.2853 68.229 98.6903 68.841 98.2823 69.589C97.8743 70.303 97.5853 71.119 97.4153 72.037C97.2793 72.921 97.2113 73.822 97.2113 74.74V88H90.0203V61.123H96.9053L97.2623 64.54ZM127.98 67.396V78.259C127.98 80.571 129.153 81.727 131.499 81.727H134.151V88H130.785C127.215 88.136 124.648 87.456 123.084 85.96C121.554 84.464 120.789 82.203 120.789 79.177V67.396H116.709V61.123H120.789V53.83H127.98V61.123H134.406V67.396H127.98ZM139.699 48.628C141.025 48.628 142.096 49.019 142.912 49.801C143.728 50.583 144.136 51.62 144.136 52.912C144.136 54.272 143.728 55.343 142.912 56.125C142.096 56.873 141.025 57.247 139.699 57.247C138.407 57.247 137.336 56.873 136.486 56.125C135.67 55.343 135.262 54.272 135.262 52.912C135.262 51.62 135.67 50.583 136.486 49.801C137.336 49.019 138.407 48.628 139.699 48.628ZM143.32 88H136.129V61.123H143.32V88ZM162.881 61.123V67.396H156.302V88H149.111V67.396H145.031V61.123H149.111V57.655C149.111 54.629 149.893 52.402 151.457 50.974C153.055 49.546 155.435 48.832 158.597 48.832H162.881V55.105H159.617C157.407 55.105 156.302 56.227 156.302 58.471V61.123H162.881ZM167.869 48.628C169.195 48.628 170.266 49.019 171.082 49.801C171.898 50.583 172.306 51.62 172.306 52.912C172.306 54.272 171.898 55.343 171.082 56.125C170.266 56.873 169.195 57.247 167.869 57.247C166.577 57.247 165.506 56.873 164.656 56.125C163.84 55.343 163.432 54.272 163.432 52.912C163.432 51.62 163.84 50.583 164.656 49.801C165.506 49.019 166.577 48.628 167.869 48.628ZM171.49 88H164.299V61.123H171.49V88ZM187.328 82.033C188.688 82.033 189.759 81.71 190.541 81.064C191.357 80.418 191.85 79.687 192.02 78.871H199.568C199.33 80.605 198.837 82.067 198.089 83.257C197.341 84.447 196.406 85.433 195.284 86.215C194.196 86.997 192.955 87.558 191.561 87.898C190.167 88.238 188.722 88.408 187.226 88.408C184.982 88.408 183.027 88.102 181.361 87.49C179.729 86.844 178.369 85.926 177.281 84.736C176.193 83.512 175.36 82.05 174.782 80.35C174.238 78.616 173.966 76.678 173.966 74.536C173.966 72.462 174.272 70.558 174.884 68.824C175.496 67.09 176.363 65.611 177.485 64.387C178.641 63.163 180.052 62.228 181.718 61.582C183.384 60.902 185.288 60.562 187.43 60.562C188.994 60.562 190.456 60.749 191.816 61.123C193.21 61.497 194.434 62.075 195.488 62.857C196.576 63.639 197.46 64.642 198.14 65.866C198.854 67.056 199.33 68.484 199.568 70.15H192.02C191.85 69.334 191.34 68.603 190.49 67.957C189.674 67.311 188.603 66.988 187.277 66.988C186.155 66.988 185.186 67.192 184.37 67.6C183.554 68.008 182.908 68.569 182.432 69.283C181.956 69.997 181.616 70.813 181.412 71.731C181.208 72.649 181.106 73.618 181.106 74.638C181.106 75.726 181.225 76.729 181.463 77.647C181.701 78.531 182.058 79.313 182.534 79.993C183.01 80.639 183.639 81.149 184.421 81.523C185.237 81.863 186.206 82.033 187.328 82.033Z" fill="#292929"/>
</svg>
